<svg width="2077" height="487" viewBox="0 0 2077 487" fill="none" xmlns="http://www.w3.org/2000/svg">
<path d="M129.6 32.4C175.6 32.4 212.2 41.8 239.4 60.6C266.6 79 280.2 106.6 280.2 143.4C280.2 170.6 273.4 193.4 259.8 211.8C246.6 229.8 228.4 243.4 205.2 252.6C182.4 261.4 156.2 265.8 126.6 265.8L112.8 219C149.2 219 181.4 224 209.4 234C237.8 244 260.2 258.4 276.6 277.2C293 295.6 301.2 317.8 301.2 343.8C301.2 367.8 296.8 388.2 288 405C279.6 421.4 268 434.8 253.2 445.2C238.8 455.2 222.4 462.6 204 467.4C185.6 471.8 166.6 474 147 474H3.75509e-06V32.4H129.6ZM139.8 213C157 213 169.6 207.8 177.6 197.4C186 187 190.2 175.2 190.2 162C190.2 146.8 185 135.4 174.6 127.8C164.6 120.2 151 116.4 133.8 116.4H87V213H139.8ZM142.8 393C155.6 393 167.2 391.4 177.6 388.2C188 384.6 196.2 379.2 202.2 372C208.2 364.4 211.2 355 211.2 343.8C211.2 331 207.6 321.4 200.4 315C193.2 308.2 183.8 303.6 172.2 301.2C161 298.4 149.2 297 136.8 297H87V393H142.8ZM362.677 474V0.599979H444.877V264.6L444.277 254.4C453.477 238 466.477 224.8 483.277 214.8C500.077 204.4 520.677 199.2 545.077 199.2C569.877 199.2 590.477 206.6 606.877 221.4C623.677 235.8 632.277 254.6 632.677 277.8V474H548.677V309C548.277 297.4 545.077 288.2 539.077 281.4C533.477 274.2 523.877 270.6 510.277 270.6C497.477 270.6 486.277 274.8 476.677 283.2C467.077 291.6 459.677 303 454.477 317.4C449.277 331.8 446.677 348.4 446.677 367.2V474H362.677ZM817.327 481.2C792.927 481.2 770.727 476.4 750.727 466.8C731.127 456.8 715.527 441.6 703.927 421.2C692.327 400.8 686.527 374.8 686.527 343.2C686.527 313.6 692.527 288 704.527 266.4C716.527 244.8 732.327 228.2 751.927 216.6C771.527 204.6 792.327 198.6 814.327 198.6C840.327 198.6 859.927 203 873.127 211.8C886.727 220.2 897.927 229.6 906.727 240L903.127 250.2L910.927 211.8H988.927V474H904.927V417L911.527 435C910.727 435 908.327 437.4 904.327 442.2C900.327 446.6 894.327 452 886.327 458.4C878.727 464.4 869.127 469.6 857.527 474C846.327 478.8 832.927 481.2 817.327 481.2ZM841.327 412.8C851.327 412.8 860.327 411.4 868.327 408.6C876.327 405.4 883.327 401 889.327 395.4C895.327 389.4 900.527 382 904.927 373.2V309C901.727 300.2 896.927 292.8 890.527 286.8C884.127 280.4 876.527 275.6 867.727 272.4C858.927 268.8 849.127 267 838.327 267C826.327 267 815.127 270.2 804.727 276.6C794.727 282.6 786.727 291 780.727 301.8C774.727 312.6 771.727 325 771.727 339C771.727 353 774.927 365.6 781.327 376.8C787.727 388 796.127 396.8 806.527 403.2C817.327 409.6 828.927 412.8 841.327 412.8ZM1183.48 479.4L1026.28 211.8H1125.88L1215.28 393L1163.68 391.2L1241.08 211.8H1334.68L1185.88 479.4H1183.48ZM1456.59 486.6C1432.99 486.6 1413.19 479.4 1397.19 465C1381.19 450.2 1372.79 431.2 1371.99 408V211.8H1455.99V376.8C1456.79 388.4 1459.79 397.8 1464.99 405C1470.19 411.8 1478.99 415.2 1491.39 415.2C1503.79 415.2 1514.39 411 1523.19 402.6C1532.39 394.2 1539.39 382.8 1544.19 368.4C1549.39 353.6 1551.99 337 1551.99 318.6V211.8H1635.99V474H1559.79L1553.19 426L1554.39 431.4C1548.39 442.2 1540.79 451.8 1531.59 460.2C1522.39 468.6 1511.39 475 1498.59 479.4C1486.19 484.2 1472.19 486.6 1456.59 486.6ZM1710.38 474V0.599979H1794.38V474H1710.38ZM1860.98 295.8L1979.78 474H1881.98L1805.78 343.8L1860.98 295.8ZM1769.18 401.4L1760.78 321.6L1919.18 205.2L1970.18 250.2L1769.18 401.4Z" fill="white"/>
<path d="M1991.72 430.8C1991.72 418.4 1996.12 408 2004.92 399.6C2014.12 391.2 2024.12 387 2034.92 387C2044.92 387 2054.32 391.2 2063.12 399.6C2072.32 408 2076.92 418.4 2076.92 430.8C2076.92 444 2072.32 454.6 2063.12 462.6C2054.32 470.2 2044.92 474 2034.92 474C2024.12 474 2014.12 470.2 2004.92 462.6C1996.12 454.6 1991.72 444 1991.72 430.8Z" fill="#FF0909"/>
</svg>
